<?xml version="1.0" standalone="no"?>
<!DOCTYPE svg PUBLIC "-//W3C//DTD SVG 20010904//EN"
 "http://www.w3.org/TR/2001/REC-SVG-20010904/DTD/svg10.dtd">
<svg version="1.0" xmlns="http://www.w3.org/2000/svg"
 width="128.000000pt" height="128.000000pt" viewBox="0 0 128.000000 128.000000"
 preserveAspectRatio="xMidYMid meet">

<g transform="translate(0.000000,128.000000) scale(0.100000,-0.100000)"
fill="#000000" stroke="none">
<path d="M570 1240 c-142 -18 -264 -83 -367 -193 -215 -231 -215 -583 0 -814
123 -131 264 -195 437 -195 58 0 120 6 160 17 212 55 382 229 436 445 22 89
15 251 -16 339 -29 82 -108 199 -173 256 -126 110 -313 167 -477 145z m260
-47 c240 -79 400 -300 400 -553 0 -320 -258 -581 -575 -582 -270 -2 -480 154
-571 422 -13 40 -18 84 -18 160 0 76 5 120 18 160 27 80 69 160 110 209 160
191 402 261 636 184z"/>
<path d="M521 1175 c0 -11 4 -27 9 -35 9 -13 10 -13 9 0 0 8 -4 24 -9 35 l-9
20 0 -20z"/>
<path d="M603 1173 c-4 -9 1 -21 11 -28 13 -10 14 -14 4 -18 -8 -4 -7 -6 5 -6
12 -1 17 7 17 28 0 33 -27 50 -37 24z m27 -13 c0 -5 -4 -10 -10 -10 -5 0 -10
5 -10 10 0 6 5 10 10 10 6 0 10 -4 10 -10z"/>
<path d="M552 1158 c2 -12 10 -23 18 -23 22 0 19 39 -3 43 -15 3 -18 -1 -15
-20z m28 -4 c0 -8 -4 -12 -10 -9 -5 3 -10 10 -10 16 0 5 5 9 10 9 6 0 10 -7
10 -16z"/>
<path d="M657 1166 c-4 -10 -5 -21 -2 -24 9 -9 17 6 13 25 -3 17 -4 17 -11 -1z"/>
<path d="M692 1168 c-16 -16 -15 -28 3 -28 8 0 15 9 15 20 0 23 -2 24 -18 8z"/>
<path d="M446 1150 c3 -14 10 -29 15 -34 14 -16 10 6 -7 34 l-15 25 7 -25z"/>
<path d="M751 1158 c-1 -9 -4 -25 -7 -35 -4 -12 3 -9 21 11 14 15 23 31 20 34
-3 4 -10 0 -14 -7 -7 -11 -10 -11 -14 0 -4 10 -6 9 -6 -3z"/>
<path d="M816 1154 c-10 -26 -7 -42 10 -48 14 -5 15 -4 4 9 -10 12 -9 15 6 16
11 0 14 3 7 6 -7 2 -13 9 -13 14 0 6 5 7 10 4 6 -3 10 -1 10 4 0 17 -27 13
-34 -5z"/>
<path d="M416 1145 c4 -8 1 -15 -5 -15 -14 0 -14 -27 -1 -35 6 -4 18 -4 26 -1
13 5 13 9 -1 36 -16 31 -29 41 -19 15z m14 -35 c0 -5 -4 -10 -10 -10 -5 0 -10
5 -10 10 0 6 5 10 10 10 6 0 10 -4 10 -10z"/>
<path d="M475 1150 c-4 -7 -3 -16 3 -22 14 -14 45 -2 40 15 -6 16 -34 21 -43
7z m25 -10 c0 -5 -2 -10 -4 -10 -3 0 -8 5 -11 10 -3 6 -1 10 4 10 6 0 11 -4
11 -10z"/>
<path d="M863 1120 c3 -10 1 -21 -4 -24 -5 -2 -4 -3 3 -2 7 2 12 11 10 21 -2
11 1 14 9 9 8 -4 10 -3 5 4 -12 19 -29 14 -23 -8z"/>
<path d="M376 1111 c-4 -5 -3 -17 0 -28 6 -15 4 -16 -7 -5 -7 6 -20 12 -28 12
-11 0 -10 -4 5 -16 10 -8 13 -13 7 -9 -7 3 -13 1 -13 -4 0 -15 25 -14 37 2 9
12 16 57 8 57 -2 0 -6 -4 -9 -9z"/>
<path d="M886 1095 c-19 -29 -20 -39 -4 -29 21 13 48 12 48 -2 0 -7 5 -16 12
-20 7 -4 8 -3 4 4 -4 7 -2 12 4 12 6 0 15 -10 20 -22 5 -13 25 -38 43 -56 31
-30 37 -32 56 -20 11 7 21 16 21 21 0 4 -12 0 -27 -10 -25 -16 -27 -16 -15 -1
18 22 8 38 -21 30 -21 -5 -21 -4 -4 15 24 28 21 38 -5 13 -13 -12 -25 -17 -31
-11 -12 12 1 33 15 25 7 -5 8 -2 4 5 -5 7 -14 10 -21 7 -7 -2 -15 4 -18 15 -3
13 -11 17 -21 13 -10 -4 -16 -1 -16 9 0 26 -28 27 -44 2z m34 -5 c0 -5 -4 -10
-10 -10 -5 0 -10 5 -10 10 0 6 5 10 10 10 6 0 10 -4 10 -10z m125 -100 c-3 -5
-12 -10 -18 -10 -7 0 -6 4 3 10 19 12 23 12 15 0z"/>
<path d="M508 1081 c-265 -87 -396 -387 -279 -638 55 -116 172 -215 295 -248
84 -23 208 -17 288 14 117 45 223 151 269 268 32 83 32 243 0 325 -46 118
-152 224 -268 269 -82 31 -226 36 -305 10z m218 -2 c130 -24 258 -119 318
-237 14 -28 26 -53 26 -56 0 -3 -85 -5 -189 -6 l-190 0 1 32 c1 24 -6 38 -32
60 -28 23 -31 28 -17 34 18 6 24 44 8 44 -6 0 -18 14 -28 30 -17 29 -43 41
-43 20 0 -14 -27 -12 -33 3 -3 7 -9 0 -16 -15 -12 -31 -26 -38 -19 -10 4 15
-1 19 -22 19 -26 0 -29 -4 -35 -44 -5 -37 -12 -48 -41 -65 -39 -23 -54 -45
-54 -82 0 -25 -2 -26 -66 -26 l-66 0 7 28 c19 80 120 186 221 234 97 45 169
56 270 37z m-337 -373 c33 -69 108 -146 140 -146 34 0 87 57 128 135 l38 75
188 -1 188 0 10 -27 c6 -15 9 -70 7 -122 -3 -81 -8 -105 -35 -163 -65 -137
-191 -233 -340 -258 -228 -37 -455 121 -504 352 -11 51 -7 188 6 209 3 5 37
10 74 10 l68 0 32 -64z"/>
<path d="M775 840 c3 -5 13 -10 21 -10 8 0 14 5 14 10 0 6 -9 10 -21 10 -11 0
-17 -4 -14 -10z"/>
<path d="M940 825 c0 -8 6 -15 14 -15 22 0 28 17 10 24 -22 9 -24 8 -24 -9z"/>
<path d="M1001 714 c0 -11 3 -14 6 -6 3 7 2 16 -1 19 -3 4 -6 -2 -5 -13z"/>
<path d="M731 664 c0 -11 3 -14 6 -6 3 7 2 16 -1 19 -3 4 -6 -2 -5 -13z"/>
<path d="M991 664 c0 -11 3 -14 6 -6 3 7 2 16 -1 19 -3 4 -6 -2 -5 -13z"/>
<path d="M981 624 c0 -11 3 -14 6 -6 3 7 2 16 -1 19 -3 4 -6 -2 -5 -13z"/>
<path d="M741 604 c0 -11 3 -14 6 -6 3 7 2 16 -1 19 -3 4 -6 -2 -5 -13z"/>
<path d="M950 558 c-36 -59 -48 -68 -84 -68 -39 0 -83 31 -97 68 -8 19 -12 23
-18 13 -8 -13 9 -79 45 -174 17 -43 17 -50 4 -74 -23 -40 -64 -67 -92 -60 -24
6 -35 22 -58 84 -12 33 -49 53 -96 53 -53 0 -87 87 -44 110 11 6 28 10 37 8 9
-2 18 3 20 10 8 20 -71 15 -90 -6 -42 -47 1 -136 71 -148 65 -11 71 -14 84
-55 34 -114 140 -110 198 8 14 28 43 70 66 95 26 28 48 67 62 108 12 35 21 65
19 66 -1 1 -13 -16 -27 -38z m-87 -98 l39 -5 -36 -32 -36 -32 -15 36 c-18 43
-19 57 -2 46 6 -4 29 -10 50 -13z"/>
<path d="M586 552 c-18 -30 10 -102 39 -102 17 0 38 52 33 82 -2 18 -10 24
-35 26 -17 2 -34 -1 -37 -6z"/>
<path d="M284 1065 c-14 -35 33 -65 52 -34 4 7 0 9 -14 5 -25 -8 -38 10 -22
29 9 11 9 15 1 15 -6 0 -14 -7 -17 -15z"/>
<path d="M240 995 c0 -15 26 -32 36 -23 2 3 2 13 -2 22 -8 20 -34 21 -34 1z"/>
<path d="M205 963 c0 -18 6 -29 17 -31 25 -5 32 17 12 39 -23 26 -30 24 -29
-8z m35 -13 c0 -5 -4 -10 -9 -10 -6 0 -13 5 -16 10 -3 6 1 10 9 10 9 0 16 -4
16 -10z"/>
<path d="M1070 945 c-11 -13 -10 -14 4 -9 9 3 16 10 16 15 0 13 -6 11 -20 -6z"/>
<path d="M1076 921 c-6 -9 2 -41 10 -41 3 0 16 8 31 17 23 16 24 17 7 24 -27
11 -42 10 -48 0z m29 -11 c-3 -5 -11 -10 -16 -10 -6 0 -7 5 -4 10 3 6 11 10
16 10 6 0 7 -4 4 -10z"/>
<path d="M165 901 c-9 -16 3 -31 26 -31 14 0 19 6 17 17 -4 20 -33 29 -43 14z
m35 -11 c0 -5 -4 -10 -10 -10 -5 0 -10 5 -10 10 0 6 5 10 10 10 6 0 10 -4 10
-10z"/>
<path d="M1096 872 c-2 -4 -1 -14 3 -20 10 -16 41 -4 41 15 0 13 -2 13 -17 2
-11 -10 -14 -10 -9 -1 4 6 3 12 -3 12 -5 0 -12 -4 -15 -8z"/>
<path d="M150 860 c0 -6 7 -13 15 -17 24 -9 27 1 5 15 -13 8 -20 8 -20 2z"/>
<path d="M130 831 c0 -9 24 -21 41 -21 5 0 9 5 9 11 0 5 -4 8 -9 4 -5 -3 -12
-1 -16 5 -8 12 -25 13 -25 1z"/>
<path d="M1116 831 c-6 -9 2 -41 9 -41 2 0 16 5 30 10 23 9 25 12 11 25 -16
17 -42 20 -50 6z m34 -11 c0 -5 -4 -10 -10 -10 -5 0 -10 5 -10 10 0 6 5 10 10
10 6 0 10 -4 10 -10z"/>
<path d="M120 780 c0 -14 7 -20 22 -20 21 0 21 0 2 16 -19 15 -18 15 4 11 12
-3 22 -1 22 4 0 5 -11 9 -25 9 -18 0 -25 -5 -25 -20z"/>
<path d="M1133 775 c-3 -9 -3 -19 1 -22 3 -4 6 0 6 8 0 12 2 11 10 -1 7 -11
12 -12 21 -3 6 6 8 16 5 22 -10 16 -36 13 -43 -4z"/>
<path d="M112 733 c4 -23 34 -28 42 -8 3 9 2 13 -4 10 -6 -3 -10 -1 -10 4 0 6
-7 11 -16 11 -9 0 -14 -7 -12 -17z"/>
<path d="M1141 728 c-1 -20 14 -24 24 -8 4 6 12 7 18 4 8 -4 7 -2 -1 7 -11 12
-14 12 -21 0 -7 -11 -9 -11 -14 0 -4 10 -6 9 -6 -3z"/>
<path d="M93 690 c1 -19 8 -25 27 -25 17 0 26 6 28 20 2 18 2 18 -8 3 -15 -24
-29 -22 -40 5 -10 22 -10 22 -7 -3z"/>
<path d="M1151 581 c-17 -11 -7 -41 13 -41 22 0 30 20 15 36 -9 8 -19 10 -28
5z"/>
<path d="M110 560 c0 -13 7 -20 20 -20 13 0 20 7 20 20 0 13 -7 20 -20 20 -13
0 -20 -7 -20 -20z"/>
<path d="M188 386 c-10 -7 -18 -16 -18 -19 0 -4 8 -3 18 0 15 6 15 5 3 -10 -7
-9 -9 -17 -3 -17 5 0 12 -9 15 -21 7 -25 31 -20 35 7 3 18 2 18 -14 -1 -14
-16 -16 -17 -11 -2 4 9 2 17 -3 17 -6 0 -10 5 -10 10 0 6 7 10 16 10 9 0 14 7
12 17 -4 22 -19 25 -40 9z m32 -6 c0 -5 -5 -10 -11 -10 -5 0 -7 5 -4 10 3 6 8
10 11 10 2 0 4 -4 4 -10z"/>
<path d="M1050 365 c0 -10 32 -34 46 -35 7 0 15 8 19 18 5 13 3 14 -6 5 -9 -9
-17 -8 -35 4 -13 8 -24 12 -24 8z"/>
<path d="M1023 323 c-20 -7 -15 -31 8 -44 13 -7 19 -7 15 -1 -3 6 2 12 13 14
18 3 18 4 -2 19 -12 9 -28 14 -34 12z"/>
<path d="M240 295 c-11 -13 -10 -14 5 -8 15 5 17 3 12 -12 -6 -15 -5 -16 8 -5
18 15 20 -1 3 -18 -8 -8 -8 -12 -1 -12 6 0 16 6 22 13 8 11 5 19 -13 36 -21
19 -24 20 -36 6z"/>
<path d="M299 244 c-13 -15 -18 -25 -10 -22 13 4 49 48 39 48 -2 0 -15 -12
-29 -26z"/>
<path d="M967 263 c-14 -13 -6 -23 19 -23 24 0 25 -2 13 -17 -13 -16 -12 -17
4 -4 24 19 21 31 -9 31 -14 0 -23 4 -19 10 7 11 2 13 -8 3z"/>
<path d="M310 220 c-10 -19 -9 -20 8 -9 14 9 23 9 38 0 18 -11 18 -11 -1 -9
-23 3 -28 -23 -6 -30 9 -3 11 0 6 8 -5 8 -4 11 3 6 23 -14 24 18 1 35 -31 24
-36 23 -49 -1z"/>
<path d="M924 208 c-4 -7 -3 -8 4 -4 8 5 12 0 12 -13 0 -14 5 -19 15 -15 8 4
15 10 15 16 0 5 -4 6 -10 3 -5 -3 -10 1 -10 9 0 19 -16 21 -26 4z"/>
<path d="M395 191 c3 -6 -2 -14 -10 -19 -15 -8 -15 -10 1 -23 16 -12 17 -12
11 4 -4 11 -2 17 8 17 20 0 19 16 -1 24 -8 3 -12 2 -9 -3z"/>
<path d="M886 191 c-9 -14 4 -41 19 -41 8 0 17 4 20 10 4 6 -1 7 -12 3 -15 -6
-16 -4 -6 9 7 8 10 18 6 21 -9 10 -21 9 -27 -2z"/>
<path d="M442 160 c-7 -12 -10 -25 -7 -29 9 -16 44 -19 49 -5 3 8 1 14 -3 14
-5 0 -7 9 -4 20 7 27 -18 26 -35 0z"/>
<path d="M865 163 c4 -14 2 -23 -4 -23 -6 0 -11 5 -11 10 0 6 -4 10 -10 10 -5
0 -7 -7 -4 -15 7 -17 30 -20 39 -5 3 5 1 18 -5 27 -9 16 -10 15 -5 -4z"/>
<path d="M517 133 c-6 -32 9 -46 35 -32 21 11 23 30 6 47 -20 20 -35 14 -41
-15z m39 6 c3 -6 -1 -18 -10 -27 -15 -15 -16 -14 -16 11 0 27 13 36 26 16z"/>
<path d="M798 149 c-20 -11 -13 -39 11 -39 14 0 14 -2 1 -10 -10 -7 -11 -10
-2 -10 18 0 26 27 16 50 -7 14 -13 17 -26 9z m22 -19 c0 -5 -4 -10 -10 -10 -5
0 -10 5 -10 10 0 6 5 10 10 10 6 0 10 -4 10 -10z"/>
<path d="M737 133 c-3 -5 -1 -17 4 -28 7 -18 8 -18 8 4 1 24 1 24 17 5 14 -17
15 -17 10 -1 -3 10 -6 21 -6 23 0 7 -29 4 -33 -3z"/>
<path d="M577 116 c-8 -19 15 -37 32 -26 17 10 7 40 -13 40 -7 0 -16 -6 -19
-14z m33 -6 c0 -5 -4 -10 -10 -10 -5 0 -10 5 -10 10 0 6 5 10 10 10 6 0 10 -4
10 -10z"/>
<path d="M631 103 l0 -28 11 25 11 25 7 -25 8 -25 1 25 c2 25 2 25 17 5 l16
-20 -4 20 c-2 14 -12 21 -36 23 -29 3 -32 1 -31 -25z"/>
<path d="M712 110 c0 -14 2 -19 5 -12 2 6 2 18 0 25 -3 6 -5 1 -5 -13z"/>
</g>
</svg>
